HIERARCHY
ROOT pelvis
{
	OFFSET 0.003123 -0.351407 0.012037
	CHANNELS 6 Xposition Yposition Zposition Zrotation Yrotation Xrotation 
	JOINT left_hip
	{
		OFFSET 0.058189 -0.092763 -0.026001
		CHANNELS 3 Zrotation Yrotation Xrotation
		JOINT left_knee
		{
			OFFSET 0.054695 -0.378753 -0.009396
			CHANNELS 3 Zrotation Yrotation Xrotation
			JOINT left_ankle
			{
				OFFSET -0.043453 -0.403059 -0.031876
				CHANNELS 3 Zrotation Yrotation Xrotation
				JOINT left_foot
				{
					OFFSET 0.047257 -0.057997 0.118216
					CHANNELS 3 Zrotation Yrotation Xrotation
					End Site
					{
						OFFSET 0.000000 0.000000 0.000000
					}
				}
			}
		}
	}
	JOINT right_hip
	{
		OFFSET -0.063267 -0.103908 -0.021250
		CHANNELS 3 Zrotation Yrotation Xrotation
		JOINT right_knee
		{
			OFFSET -0.044210 -0.362380 -0.016824
			CHANNELS 3 Zrotation Yrotation Xrotation
			JOINT right_ankle
			{
				OFFSET 0.015417 -0.410728 -0.020192
				CHANNELS 3 Zrotation Yrotation Xrotation
				JOINT right_foot
				{
					OFFSET -0.038812 -0.058328 0.119049
					CHANNELS 3 Zrotation Yrotation Xrotation
					End Site
					{
						OFFSET 0.000000 0.000000 0.000000
					}
				}
			}
		}
	}
	JOINT spine_1
	{
		OFFSET -0.002763 0.109891 -0.027618
		CHANNELS 3 Zrotation Yrotation Xrotation
		JOINT spine_2
		{
			OFFSET 0.009448 0.131853 -0.005940
			CHANNELS 3 Zrotation Yrotation Xrotation
			JOINT spine_3
			{
				OFFSET -0.011330 0.052235 0.028447
				CHANNELS 3 Zrotation Yrotation Xrotation
				JOINT neck
				{
					OFFSET -0.012164 0.165167 -0.031615
					CHANNELS 3 Zrotation Yrotation Xrotation
					JOINT head
					{
						OFFSET 0.024783 0.160452 0.020737
						CHANNELS 3 Zrotation Yrotation Xrotation
						End Site
						{
							OFFSET 0.000000 0.000000 0.000000
						}
					}
				}
				JOINT left_collar
				{
					OFFSET 0.046364 0.084944 -0.007220
					CHANNELS 3 Zrotation Yrotation Xrotation
					JOINT left_shoulder
					{
						OFFSET 0.119239 0.057728 -0.015461
						CHANNELS 3 Zrotation Yrotation Xrotation
						JOINT left_elbow
						{
							OFFSET 0.254123 -0.072151 -0.042459
							CHANNELS 3 Zrotation Yrotation Xrotation
							JOINT left_wrist
							{
								OFFSET 0.251987 0.023221 -0.002472
								CHANNELS 3 Zrotation Yrotation Xrotation
								JOINT left_index_1
								{
									OFFSET 0.101902 -0.008688 0.019351
									CHANNELS 3 Zrotation Yrotation Xrotation
									JOINT left_index_2
									{
										OFFSET 0.030149 -0.011154 0.001151
										CHANNELS 3 Zrotation Yrotation Xrotation
										JOINT left_index_3
										{
											OFFSET 0.006504 -0.021577 -0.002433
											CHANNELS 3 Zrotation Yrotation Xrotation
											End Site
											{
												OFFSET 0.000000 0.000000 0.000000
											}
										}
									}
								}
								JOINT left_middle_1
								{
									OFFSET 0.109398 -0.006328 -0.003981
									CHANNELS 3 Zrotation Yrotation Xrotation
									JOINT left_middle_2
									{
										OFFSET 0.026472 -0.015218 -0.004641
										CHANNELS 3 Zrotation Yrotation Xrotation
										JOINT left_middle_3
										{
											OFFSET 0.005022 -0.023347 -0.001911
											CHANNELS 3 Zrotation Yrotation Xrotation
											End Site
											{
												OFFSET 0.000000 0.000000 0.000000
											}
										}
									}
								}
								JOINT left_pinky_1
								{
									OFFSET 0.084047 -0.014539 -0.043750
									CHANNELS 3 Zrotation Yrotation Xrotation
									JOINT left_pinky_2
									{
										OFFSET 0.012124 -0.014448 -0.005375
										CHANNELS 3 Zrotation Yrotation Xrotation
										JOINT left_pinky_3
										{
											OFFSET 0.003798 -0.018853 0.000167
											CHANNELS 3 Zrotation Yrotation Xrotation
											End Site
											{
												OFFSET 0.000000 0.000000 0.000000
											}
										}
									}
								}
								JOINT left_ring_1
								{
									OFFSET 0.097444 -0.009268 -0.027345
									CHANNELS 3 Zrotation Yrotation Xrotation
									JOINT left_ring_2
									{
										OFFSET 0.023561 -0.016057 -0.001895
										CHANNELS 3 Zrotation Yrotation Xrotation
										JOINT left_ring_3
										{
											OFFSET 0.004257 -0.023548 0.000814
											CHANNELS 3 Zrotation Yrotation Xrotation
											End Site
											{
												OFFSET 0.000000 0.000000 0.000000
											}
										}
									}
								}
								JOINT left_thumb_1
								{
									OFFSET 0.040636 -0.017977 0.025611
									CHANNELS 3 Zrotation Yrotation Xrotation
									JOINT left_thumb_2
									{
										OFFSET 0.021637 -0.017639 0.011623
										CHANNELS 3 Zrotation Yrotation Xrotation
										JOINT left_thumb_3
										{
											OFFSET 0.024002 -0.008356 0.006548
											CHANNELS 3 Zrotation Yrotation Xrotation
											End Site
											{
												OFFSET 0.000000 0.000000 0.000000
											}
										}
									}
								}
							}
						}
					}
				}
				JOINT right_collar
				{
					OFFSET -0.047695 0.084339 -0.013400
					CHANNELS 3 Zrotation Yrotation Xrotation
					JOINT right_shoulder
					{
						OFFSET -0.102578 0.053524 -0.012669
						CHANNELS 3 Zrotation Yrotation Xrotation
						JOINT right_elbow
						{
							OFFSET -0.271150 -0.036492 -0.026467
							CHANNELS 3 Zrotation Yrotation Xrotation
							JOINT right_wrist
							{
								OFFSET -0.249267 -0.004533 -0.015325
								CHANNELS 3 Zrotation Yrotation Xrotation
								JOINT right_index_1
								{
									OFFSET -0.099881 -0.011783 0.019600
									CHANNELS 3 Zrotation Yrotation Xrotation
									JOINT right_index_2
									{
										OFFSET -0.030148 -0.011154 0.001151
										CHANNELS 3 Zrotation Yrotation Xrotation
										JOINT right_index_3
										{
											OFFSET -0.006505 -0.021577 -0.002432
											CHANNELS 3 Zrotation Yrotation Xrotation
											End Site
											{
												OFFSET 0.000000 0.000000 0.000000
											}
										}
									}
								}
								JOINT right_middle_1
								{
									OFFSET -0.107376 -0.009422 -0.003734
									CHANNELS 3 Zrotation Yrotation Xrotation
									JOINT right_middle_2
									{
										OFFSET -0.026472 -0.015218 -0.004641
										CHANNELS 3 Zrotation Yrotation Xrotation
										JOINT right_middle_3
										{
											OFFSET -0.005022 -0.023347 -0.001911
											CHANNELS 3 Zrotation Yrotation Xrotation
											End Site
											{
												OFFSET 0.000000 0.000000 0.000000
											}
										}
									}
								}
								JOINT right_pinky_1
								{
									OFFSET -0.082027 -0.017634 -0.043503
									CHANNELS 3 Zrotation Yrotation Xrotation
									JOINT right_pinky_2
									{
										OFFSET -0.012123 -0.014448 -0.005374
										CHANNELS 3 Zrotation Yrotation Xrotation
										JOINT right_pinky_3
										{
											OFFSET -0.003798 -0.018852 0.000167
											CHANNELS 3 Zrotation Yrotation Xrotation
											End Site
											{
												OFFSET 0.000000 0.000000 0.000000
											}
										}
									}
								}
								JOINT right_ring_1
								{
									OFFSET -0.095423 -0.012362 -0.027099
									CHANNELS 3 Zrotation Yrotation Xrotation
									JOINT right_ring_2
									{
										OFFSET -0.023561 -0.016057 -0.001895
										CHANNELS 3 Zrotation Yrotation Xrotation
										JOINT right_ring_3
										{
											OFFSET -0.004257 -0.023548 0.000816
											CHANNELS 3 Zrotation Yrotation Xrotation
											End Site
											{
												OFFSET 0.000000 0.000000 0.000000
											}
										}
									}
								}
								JOINT right_thumb_1
								{
									OFFSET -0.038613 -0.021074 0.025861
									CHANNELS 3 Zrotation Yrotation Xrotation
									JOINT right_thumb_2
									{
										OFFSET -0.021636 -0.017639 0.011623
										CHANNELS 3 Zrotation Yrotation Xrotation
										JOINT right_thumb_3
										{
											OFFSET -0.024004 -0.008353 0.006547
											CHANNELS 3 Zrotation Yrotation Xrotation
											End Site
											{
												OFFSET 0.000000 0.000000 0.000000
											}
										}
									}
								}
							}
						}
					}
				}
			}
		}
	}
}
MOTION
Frames: 7
Frame Time: 0.050000
-0.362732 0.952383 1.097412 23.180731 85.547916 18.861290 -0.608394 -0.666648 6.923904 4.192869 -0.437215 0.145338 0.034775 2.032954 6.092429 0.000000 0.000000 0.000000 -2.400324 -1.473778 -4.935763 -2.392941 -1.821766 11.764969 29.958779 23.208349 7.183612 0.000000 0.000000 0.000000 2.177025 -0.393588 3.305238 -11.261303 2.177094 -13.470274 17.002807 14.625090 27.545987 2.570237 -0.210989 -0.427236 0.000000 0.000000 0.000000 6.455690 -14.146055 5.293796 -56.871193 -16.189373 -26.534951 -36.896127 -10.827827 3.082060 1.722264 7.656471 23.619724 -7.137770 4.141538 1.368727 -6.914533 -0.111305 -4.310805 0.000000 0.000000 0.000000 -56.206790 -2.059930 -16.067760 -50.578142 -0.669110 -9.693729 0.000000 0.000000 0.000000 6.627401 -16.392120 -7.904118 -66.309551 2.180432 -14.312362 0.000000 0.000000 0.000000 -27.323025 -5.036645 -6.487081 -54.021805 0.816689 -7.579161 0.000000 0.000000 0.000000 1.049787 16.329793 16.077441 -5.795970 -0.491181 1.757469 0.000000 0.000000 0.000000 -9.869150 -4.231098 -3.023321 61.832004 5.233282 22.960616 19.972136 27.027940 3.653549 -2.788746 5.058955 -11.833636 14.190794 -1.478942 1.153798 7.984301 4.024174 -7.884551 0.000000 0.000000 0.000000 21.333602 5.101523 -2.728864 12.301920 4.917170 -10.603226 0.000000 0.000000 0.000000 1.243993 12.896956 -16.505977 49.409401 4.851596 -5.379212 0.000000 0.000000 0.000000 16.302146 5.229337 -1.505658 28.671666 9.002088 -7.283980 0.000000 0.000000 0.000000 -1.636670 -11.983206 6.406184 7.221223 2.112954 1.325672 0.000000 0.000000 0.000000 
-0.362732 0.952383 1.097412 26.706985 86.012196 22.055219 -0.607119 -0.722298 7.182816 4.202381 -0.448280 0.229235 -0.143508 1.660066 5.960313 0.000000 0.000000 0.000000 -2.476230 -1.499283 -4.642379 -2.388076 -1.941235 12.039862 29.808684 22.990068 6.872974 0.000000 0.000000 0.000000 1.933148 -0.288531 4.458469 -8.125575 1.656615 -14.791154 14.598505 16.985589 29.052327 1.681197 -0.336706 -0.329674 0.000000 0.000000 0.000000 7.492889 -15.182803 6.379572 -55.742678 -16.311232 -27.086370 -37.219088 -10.564055 2.818394 2.265518 6.177042 22.906046 -10.168782 6.726941 1.962175 -3.298824 -1.807290 -5.958335 0.000000 0.000000 0.000000 -57.165058 -0.873607 -16.247857 -55.592767 -3.360508 -12.256055 0.000000 0.000000 0.000000 7.486853 -15.761733 -7.343150 -68.819554 -4.313877 -18.747133 0.000000 0.000000 0.000000 -33.592710 -5.063938 -7.639849 -54.753446 -1.401125 -9.723887 0.000000 0.000000 0.000000 0.269469 15.431920 14.938446 -6.431528 0.329887 2.146175 0.000000 0.000000 0.000000 -9.491724 -5.692245 -3.411050 62.424857 5.742027 24.412943 17.880807 26.436728 3.024204 -1.933279 6.329504 -12.730750 12.111311 -2.240392 1.023493 10.598185 6.112453 -12.096908 0.000000 0.000000 0.000000 19.489474 4.130263 -2.430280 13.747200 6.035205 -11.980464 0.000000 0.000000 0.000000 4.619793 16.004712 -19.631177 36.321863 3.227875 -4.478320 0.000000 0.000000 0.000000 15.496208 6.355700 -2.188109 23.546959 11.181066 -12.526811 0.000000 0.000000 0.000000 1.709115 -7.965167 6.020264 -0.859987 -4.915414 3.355304 0.000000 0.000000 0.000000 
-0.362732 0.952383 1.097412 29.743870 86.498099 25.729231 -0.508017 -0.742639 6.788172 4.263986 -0.447746 -0.437763 -0.537140 1.324788 6.045654 0.000000 0.000000 0.000000 -2.418680 -1.552435 -5.286349 -2.342001 -1.979290 12.049944 29.489458 22.662929 6.697533 0.000000 0.000000 0.000000 3.614759 -0.531398 3.507364 -11.817531 2.147183 -13.812681 15.886063 17.184776 28.098275 2.603355 -0.354538 -0.226791 0.000000 0.000000 0.000000 7.730086 -14.689119 6.213109 -55.189358 -15.420749 -27.329810 -36.475977 -10.249646 2.573827 0.896139 7.128654 23.999769 -9.659035 5.141189 1.433250 -3.343667 -1.227964 -4.952815 0.000000 0.000000 0.000000 -61.870847 -6.144467 -17.852873 -57.549232 -5.046942 -12.562058 0.000000 0.000000 0.000000 6.407824 -17.283398 -8.607773 -69.193078 6.814158 -13.206275 0.000000 0.000000 0.000000 -36.896757 -6.665778 -8.885198 -60.703881 -4.714417 -12.316469 0.000000 0.000000 0.000000 0.338191 16.283564 15.702878 -5.752988 -1.287669 1.513063 0.000000 0.000000 0.000000 -8.643753 -5.517382 -2.808786 62.292224 6.383936 24.552215 16.981712 26.624201 2.817082 -2.412620 6.416365 -13.690409 12.255704 -1.886304 0.962252 11.475576 6.746323 -12.828131 0.000000 0.000000 0.000000 20.455355 4.708848 -2.503090 16.049918 7.350224 -13.740345 0.000000 0.000000 0.000000 2.873838 13.876901 -17.444195 38.076916 5.625702 -6.720155 0.000000 0.000000 0.000000 17.995232 6.282273 -1.606676 28.920776 11.212713 -10.108306 0.000000 0.000000 0.000000 0.545636 -7.737462 5.241189 0.496748 -5.060383 3.718566 0.000000 0.000000 0.000000 
-0.362732 0.952383 1.097412 35.692645 86.967269 31.385938 -0.484635 -0.801943 6.984565 4.258065 -0.462130 -0.334102 -0.737937 0.918309 5.908946 0.000000 0.000000 0.000000 -2.495902 -1.581103 -5.031694 -2.318959 -2.112519 12.327032 29.310909 22.419632 6.380613 0.000000 0.000000 0.000000 3.384526 -0.441495 4.587755 -11.523591 2.068363 -14.334058 15.626645 16.946442 27.877746 2.548429 -0.187117 -0.822853 0.000000 0.000000 0.000000 7.840277 -14.494688 6.108893 -55.318280 -13.542211 -27.711889 -36.832742 -10.444728 2.565649 1.953864 7.709268 23.340633 -10.961896 4.022510 0.886044 -2.511650 1.759347 1.403681 0.000000 0.000000 0.000000 -63.734067 -5.547363 -17.724823 -63.583067 -5.429524 -11.436869 0.000000 0.000000 0.000000 7.384350 -17.327569 -8.755053 -66.099216 -6.314192 -20.565496 0.000000 0.000000 0.000000 -41.330212 -1.796105 -9.414333 -64.136993 -5.591080 -10.578051 0.000000 0.000000 0.000000 0.952645 16.589161 15.788639 -6.584974 -2.487046 1.478750 0.000000 0.000000 0.000000 -8.630489 -5.350150 -2.587613 62.009373 7.414582 25.095235 17.777656 27.157598 3.161925 -3.995554 5.362440 -15.884544 14.988004 -3.266839 1.379293 13.371071 5.902528 -8.104096 0.000000 0.000000 0.000000 23.090243 5.262047 -2.223344 18.973973 4.544560 -6.384841 0.000000 0.000000 0.000000 4.113073 14.215757 -17.188632 49.514231 5.972132 -6.479734 0.000000 0.000000 0.000000 19.224359 6.370738 -1.086130 29.709125 12.397362 -11.083335 0.000000 0.000000 0.000000 -1.143906 -11.798782 6.319951 6.776231 1.250082 1.934499 0.000000 0.000000 0.000000 
-0.360847 0.952383 1.097412 37.088847 87.116453 33.405638 -0.462790 -0.810308 6.986417 4.323024 -0.457986 -1.386327 -1.043848 0.912468 6.131876 0.000000 0.000000 0.000000 -2.462151 -1.613614 -5.486334 -2.273957 -2.071734 12.160666 29.102228 22.314352 6.289143 0.000000 0.000000 0.000000 3.427198 -0.576848 2.958972 -11.539327 2.074908 -13.693935 16.125262 17.532428 28.628984 2.629813 -0.172561 -0.871549 0.000000 0.000000 0.000000 7.356009 -13.831624 5.276161 -55.464391 -12.943389 -27.740343 -35.951471 -9.104966 2.044032 2.771040 8.723684 23.933375 -12.229523 5.859074 1.349314 -4.490794 -1.408735 -5.650987 0.000000 0.000000 0.000000 -68.945641 -3.132761 -18.938040 -61.614635 -5.836086 -10.913771 0.000000 0.000000 0.000000 4.839080 -16.017517 -8.138206 -69.669027 -1.558819 -16.924147 0.000000 0.000000 0.000000 -41.536146 -9.894412 -9.642313 -60.126136 -6.593785 -13.264654 0.000000 0.000000 0.000000 -3.113199 17.205010 16.112023 -0.616073 0.782974 0.260201 0.000000 0.000000 0.000000 -8.698410 -5.172826 -2.368264 61.749000 8.569150 25.765203 17.959009 27.979627 3.407987 -4.013770 3.905007 -16.129111 13.329509 -2.545221 1.134042 15.410984 6.450035 -7.256674 0.000000 0.000000 0.000000 21.977241 6.352168 -2.604378 19.087718 5.235079 -7.197496 0.000000 0.000000 0.000000 3.743828 14.947941 -18.122781 43.277621 3.531517 -4.411355 0.000000 0.000000 0.000000 18.599130 7.391962 -1.689945 25.696733 11.263078 -10.999004 0.000000 0.000000 0.000000 -1.561249 -12.337146 6.351425 6.589506 2.256773 1.384238 0.000000 0.000000 0.000000 
-0.360847 0.952383 1.097412 44.842356 87.507506 40.852376 -0.424464 -0.879245 7.216140 4.304758 -0.472846 -1.303186 -1.217077 0.547752 6.010074 0.000000 0.000000 0.000000 -2.543636 -1.614905 -4.932532 -2.159823 -2.099116 11.935889 28.833776 21.974066 5.957857 0.000000 0.000000 0.000000 3.235275 -0.473875 4.067944 -11.283791 2.001096 -14.278845 16.142653 18.111713 28.273433 2.852055 -0.172959 -0.966354 0.000000 0.000000 0.000000 7.624702 -14.711458 5.736748 -56.055512 -11.291431 -28.662996 -35.969646 -9.837844 2.248159 1.602223 9.217473 24.994403 -8.297062 6.774338 2.172419 -4.952205 0.868916 -1.803039 0.000000 0.000000 0.000000 -66.120903 -0.651763 -18.714949 -62.219745 -8.065961 -13.877699 0.000000 0.000000 0.000000 7.458278 -18.437804 -9.115731 -69.216818 -0.958231 -18.291850 0.000000 0.000000 0.000000 -40.581036 -2.148492 -9.228981 -68.558357 -4.329304 -8.082391 0.000000 0.000000 0.000000 0.185721 16.846389 15.910805 -2.591540 0.015829 0.730082 0.000000 0.000000 0.000000 -8.411897 -5.329065 -2.091125 62.380237 9.360259 26.890938 16.373455 27.532317 2.837569 -3.270776 5.011347 -16.082667 15.572095 0.245678 1.147899 12.276588 6.299835 -9.264754 0.000000 0.000000 0.000000 20.078541 3.278356 -1.822355 17.598440 8.718320 -14.456337 0.000000 0.000000 0.000000 3.939226 15.011261 -18.152706 45.715608 3.772508 -4.489324 0.000000 0.000000 0.000000 18.568617 7.285226 -1.700170 29.096160 10.667729 -8.573908 0.000000 0.000000 0.000000 1.449507 -8.078489 5.939110 3.521507 -1.133100 2.542387 0.000000 0.000000 0.000000 
-0.358963 0.952383 1.097412 45.799119 87.514592 41.823851 -0.464446 -0.899437 7.463223 4.320811 -0.472667 -1.558931 -1.256097 0.565794 6.047500 0.000000 0.000000 0.000000 -1.829542 -1.390927 -4.608385 -3.317486 -1.604248 11.548916 28.485015 21.667882 5.283188 0.000000 0.000000 0.000000 3.188144 -0.470891 4.050258 -11.262195 1.997017 -14.281152 16.121869 18.082178 28.258803 1.255114 -0.251632 -0.894546 0.000000 0.000000 0.000000 7.463988 -14.245534 5.352178 -56.580324 -9.780464 -29.041632 -36.558427 -9.536917 2.143419 3.632069 10.047445 25.876362 -11.544516 6.352391 1.551252 -3.182501 -0.761442 -3.839031 0.000000 0.000000 0.000000 -66.560538 -7.392358 -18.708311 -57.714079 -6.501316 -12.639715 0.000000 0.000000 0.000000 7.153542 -16.246077 -7.870422 -70.900352 6.445463 -15.013202 0.000000 0.000000 0.000000 -40.924454 -9.401906 -9.656420 -64.398627 -6.726215 -11.775094 0.000000 0.000000 0.000000 -1.981042 17.419985 16.130303 -1.716367 -1.351102 0.015000 0.000000 0.000000 0.000000 -8.243637 -5.058536 -1.773156 61.998213 10.537498 27.191275 16.963540 28.048290 3.143951 -2.514815 6.830477 -15.879452 11.634754 -2.396421 0.992532 11.128074 6.511369 -9.695328 0.000000 0.000000 0.000000 17.901626 2.251693 -1.579257 16.249705 8.287045 -13.940755 0.000000 0.000000 0.000000 3.654740 15.591950 -18.859951 39.848276 4.112427 -5.168100 0.000000 0.000000 0.000000 15.492476 5.655162 -1.415451 26.096770 11.131628 -10.242274 0.000000 0.000000 0.000000 0.247146 -7.244092 4.801538 4.023289 -2.582300 3.200152 0.000000 0.000000 0.000000 
